PathFileType	4	(X/Y/Z)	OpenSim_Sub09_CSStiffKnee_Gyro.trc
DataRate	CameraRate	NumFrames	NumMarkers	Units	OrigDataRate	OrigDataStartFrame	OrigNumFrames
100	100	30	8	m	100	2673	7127
Frame#	Time	torso_imu_offset_imu	pelvis_imu_offset_imu	tibia_r_imu_offset_imu	femur_r_imu_offset_imu	tibia_l_imu_offset_imu	femur_l_imu_offset_imu	toes_r_imu_offset_imu	toes_l_imu_offset_imu
				X1	Y1	Z1	X2	Y2	Z2	X3	Y3	Z3	X4	Y4	Z4	X5	Y5	Z5	X6	Y6	Z6	X7	Y7	Z7	X8		Y8	Z8	

2673	26.72000000	0.94098881	-0.06237082	0.24228976	0.67572707	0.04325522	-0.36403585	-0.47496761	-0.39295563	-0.55658685	-0.50306105	-0.24236596	-0.74642198	0.50129572	0.01402689	-2.63255200	0.10298146	-0.03914601	-1.37738865	0.22912525	0.04519507	-0.14947161	0.97390973	2.12683436	-0.84283377
2674	26.73000000	0.95907225	-0.06123607	0.26442691	0.68360993	0.05708509	-0.30537487	-0.29956249	-0.34810701	-0.52557838	-0.27837755	-0.17218804	-0.78987183	0.12422720	0.12408940	-2.63591604	0.24950334	-0.00936550	-1.43269278	0.21650655	0.04987256	-0.13813929	1.00579983	1.93018868	-0.93220873
2675	26.74000000	0.97538913	-0.05887256	0.27086827	0.70102939	0.07149784	-0.23608927	-0.16432500	-0.28942636	-0.49521197	-0.06051056	-0.05620301	-0.84810745	-0.18347088	0.23469583	-2.58555997	0.42672683	0.03785535	-1.44332780	0.20220329	0.04197101	-0.13751042	0.99625800	1.84270892	-1.07364482
2676	26.75000000	0.96427779	-0.04610122	0.28057017	0.68110156	0.07791646	-0.16798428	-0.09402794	-0.26729552	-0.46459197	0.11577655	0.00975748	-0.89360398	-0.29482477	0.30731021	-2.52603724	0.62970080	0.07246245	-1.47730141	0.20891672	0.03545825	-0.15221441	0.86787191	1.84844654	-1.19924296
2677	26.76000000	0.93295585	-0.03311596	0.28162203	0.64860037	0.07970710	-0.11426328	-0.04971834	-0.23199145	-0.44696121	0.27950265	0.03381709	-0.92392744	-0.23341871	0.33988937	-2.49551651	0.83290715	0.05508307	-1.57044097	0.22031460	0.02503827	-0.16467489	0.62816789	1.88545737	-1.24949399
2678	26.77000000	0.87738168	-0.02687256	0.28548721	0.62406356	0.08317421	-0.06785951	-0.10581481	-0.23622386	-0.43111467	0.42785184	0.03815373	-0.94274230	-0.06300881	0.35025246	-2.48081318	1.00061733	0.00988793	-1.62800842	0.21990270	0.02644186	-0.17895233	0.40924359	1.87443495	-1.22079043
2679	26.78000000	0.81715276	-0.01865948	0.28207189	0.59227278	0.09312113	-0.02853463	-0.14826661	-0.24807985	-0.42198685	0.55554537	0.03515644	-0.94669515	0.13354831	0.32953947	-2.46334518	1.05388032	0.00803620	-1.64479861	0.20746667	0.02703267	-0.18710484	0.35868071	1.85315695	-1.13858454
2680	26.79000000	0.75341863	-0.01804034	0.28485692	0.56554587	0.10854984	-0.00413410	-0.20538458	-0.23358497	-0.42052065	0.63271272	0.01260642	-0.94416377	0.33552016	0.24796961	-2.43386990	1.01140472	0.06015041	-1.63783222	0.18963871	0.01466709	-0.18212501	0.50181880	1.89472723	-1.03247501
2681	26.80000000	0.70090789	-0.01719506	0.29089283	0.53376486	0.13428093	0.01130021	-0.30491443	-0.24274530	-0.39179821	0.66348063	-0.00605556	-0.92344624	0.52397272	0.15300451	-2.38551978	0.83866359	0.07089310	-1.62549763	0.17312533	0.01033391	-0.17560105	0.73243505	2.00939136	-0.91787027
2682	26.81000000	0.63588013	-0.00814097	0.28305427	0.49228891	0.16526180	0.00786993	-0.38664635	-0.24932251	-0.35225787	0.67276765	0.01428068	-0.91171431	0.61281039	0.07442820	-2.33096170	0.63337121	-0.00079280	-1.63947340	0.15107800	-0.00537174	-0.17227346	0.90719455	2.13156019	-0.80209269
2683	26.82000000	0.61017019	-0.00815060	0.26725041	0.43037101	0.18770767	-0.00421695	-0.49312491	-0.26438074	-0.34025524	0.64217054	0.05657552	-0.91721805	0.61872503	0.00171866	-2.31251985	0.37568136	-0.08211805	-1.64151858	0.12589410	-0.01797867	-0.15880440	0.95373405	2.19543393	-0.69879206
2684	26.83000000	0.56958822	0.00340163	0.25083608	0.36463057	0.19811061	-0.03566767	-0.57662495	-0.27395185	-0.36276992	0.58021287	0.08337549	-0.91709529	0.62008715	-0.05486795	-2.33414566	0.12466265	-0.17263941	-1.58092022	0.09739525	-0.04012362	-0.14149035	0.93513813	2.17525693	-0.64670738
2685	26.84000000	0.51112513	0.03510121	0.23552889	0.28578822	0.16912571	-0.08193500	-0.61222952	-0.24153265	-0.36884510	0.47509894	0.09762493	-0.91700875	0.58532762	-0.07645834	-2.34626939	-0.17385529	-0.22287241	-1.50097435	0.06995634	-0.05290470	-0.14332597	0.93690083	2.09046359	-0.68518480
2686	26.85000000	0.47110166	0.05269077	0.21379581	0.18107188	0.08880725	-0.11262033	-0.53360819	-0.17043305	-0.33146373	0.35735761	0.11380713	-0.90958859	0.50817986	-0.06420164	-2.31658803	-0.45054605	-0.26224141	-1.44048059	0.07604282	-0.08123395	-0.16621032	0.95091214	1.95973727	-0.81304629
2687	26.86000000	0.42851600	0.06432316	0.18172803	0.08229084	-0.02511407	-0.13310439	-0.47436907	-0.12897054	-0.31192623	0.22119136	0.13418482	-0.91003101	0.37606624	-0.03295166	-2.27153364	-0.64010017	-0.25047277	-1.38482613	0.08732634	-0.10692038	-0.18187343	0.95746726	1.80057971	-0.96861212
2688	26.87000000	0.36152914	0.06746773	0.16668651	-0.01413310	-0.11592613	-0.14133494	-0.46073863	-0.08762198	-0.36822962	0.07292193	0.13701133	-0.91293354	0.16979374	-0.01140363	-2.21833327	-0.74383577	-0.24992756	-1.32930164	0.08785910	-0.12250697	-0.19245618	0.89512142	1.64070526	-1.09474652
2689	26.88000000	0.28078356	0.07069176	0.14557650	-0.11067352	-0.17348005	-0.14477544	-0.48476157	-0.03696796	-0.41853131	-0.05481545	0.11665497	-0.89793482	-0.02837043	-0.00312008	-2.14227951	-0.76350296	-0.27088003	-1.25054341	0.07651972	-0.14743385	-0.20249303	0.74110356	1.52205138	-1.18323034
2690	26.89000000	0.20761783	0.07950397	0.11197303	-0.20438632	-0.22594709	-0.16010714	-0.49632704	0.00065023	-0.42022529	-0.16419472	0.10337310	-0.87038865	-0.17702039	-0.01014570	-2.02617901	-0.81703189	-0.26842939	-1.16033790	0.06611058	-0.18091066	-0.21388487	0.56919062	1.43592738	-1.24197005
2691	26.90000000	0.12991378	0.10127607	0.07671942	-0.30134866	-0.27751686	-0.17397228	-0.49247802	0.02485779	-0.45249638	-0.25571922	0.10130132	-0.83878957	-0.34708704	-0.02996646	-1.88225571	-0.91232859	-0.26561268	-1.04602305	0.06726320	-0.19553405	-0.21898930	0.43040369	1.32554508	-1.30105637
2692	26.91000000	0.04896316	0.12838410	0.04394253	-0.38189033	-0.31412629	-0.17490904	-0.52489291	0.04769710	-0.52310946	-0.31462871	0.10527950	-0.80479394	-0.56667693	-0.03117428	-1.72787532	-1.07333220	-0.25788220	-0.92327142	0.05630293	-0.20144138	-0.22745390	0.32493374	1.19879711	-1.36927469
2693	26.92000000	-0.04439171	0.16114033	0.01934616	-0.46526534	-0.36256012	-0.17758829	-0.57413306	0.06934781	-0.60578253	-0.36657302	0.11938682	-0.76283820	-0.75971873	-0.02518601	-1.53645894	-1.17508056	-0.29750090	-0.85252804	0.07191521	-0.20973683	-0.24892909	0.23248958	1.04968156	-1.38965912
2694	26.93000000	-0.15547454	0.20003382	-0.02611896	-0.53357038	-0.39450349	-0.17820506	-0.62560722	0.07466113	-0.66256757	-0.40765624	0.13323129	-0.69975487	-0.90616141	-0.05333926	-1.32886448	-1.17185746	-0.32319408	-0.80539033	0.08414789	-0.21301461	-0.27205089	0.15480187	0.85554822	-1.34696920
2695	26.94000000	-0.26484305	0.23527744	-0.07470919	-0.60917441	-0.42510044	-0.16041443	-0.66369138	0.06053330	-0.73335650	-0.44663629	0.14014817	-0.63618693	-1.01377897	-0.08632580	-1.12084724	-1.13593538	-0.38906513	-0.70849045	0.11116618	-0.23597130	-0.30046653	0.13374825	0.60731888	-1.27844924
2696	26.95000000	-0.36578083	0.26763796	-0.12730540	-0.69946914	-0.47808939	-0.13725585	-0.69145706	0.08769304	-0.83245406	-0.48102897	0.14167405	-0.56417799	-1.06295315	-0.12005596	-0.91044528	-1.01185420	-0.45831912	-0.61688308	0.11730198	-0.23502825	-0.30337534	0.15885771	0.32669307	-1.22397913
2697	26.96000000	-0.44487071	0.30071191	-0.19643195	-0.76359763	-0.53744608	-0.10510235	-0.70557077	0.12206051	-0.94413892	-0.48977648	0.13842768	-0.47357162	-1.06428096	-0.16925636	-0.72218596	-0.83713097	-0.49026447	-0.54845760	0.12626973	-0.22688612	-0.30078740	0.14859503	0.05853363	-1.18806793
2698	26.97000000	-0.52331047	0.33733804	-0.25570603	-0.81432951	-0.59345876	-0.06701393	-0.70057104	0.14461354	-1.02116625	-0.47138712	0.13023760	-0.36023648	-1.07883372	-0.19088206	-0.55081864	-0.69144781	-0.46841038	-0.46181122	0.13191828	-0.22654920	-0.30356265	0.10554992	-0.22304953	-1.14862648
2699	26.98000000	-0.56963987	0.38189427	-0.31067537	-0.85606197	-0.65260621	-0.03386137	-0.64820692	0.16623635	-1.07577388	-0.42628809	0.11608424	-0.27782651	-1.12723297	-0.20866977	-0.39186490	-0.54661108	-0.42180431	-0.34310159	0.14259480	-0.24913101	-0.30777198	0.03969863	-0.45356275	-1.10255870
2700	26.99000000	-0.62691062	0.42604974	-0.37124163	-0.89748531	-0.71699930	0.00906955	-0.63145079	0.15287289	-1.14830987	-0.36326227	0.11509156	-0.23778016	-1.10102199	-0.24490353	-0.23240550	-0.42323791	-0.39624014	-0.20304365	0.13743616	-0.26526321	-0.30621891	-0.02648121	-0.59582661	-1.01988910
2701	27	-0.68974746	0.48816758	-0.42326118	-0.93144497	-0.79311682	0.05001996	-0.66354691	0.13074660	-1.25083855	-0.34076002	0.10818264	-0.18882039	-1.01939759	-0.28025304	-0.08758409	-0.33249822	-0.40418996	-0.06724165	0.11354559	-0.29045913	-0.30746488	-0.02843624	-0.66760791	-0.90310950
2702	27.01000000	-0.76141478	0.56842992	-0.48922619	-0.96288408	-0.86939755	0.10376152	-0.73268421	0.08421382	-1.37788100	-0.37572042	0.08768932	-0.16762970	-0.99503298	-0.32027317	0.06065946	-0.26213367	-0.43957473	0.06570274	-0.07514642	-0.33154360	-0.30144222	-0.07052526	-0.73899774	-0.76304923
